<svg width="400" height="400" viewBox="0 0 400 400" fill="none" xmlns="http://www.w3.org/2000/svg">
  <circle cx="200" cy="200" r="180" stroke="rgba(255,255,255,0.1)" stroke-width="1" fill="none"/>
  <circle cx="200" cy="200" r="140" stroke="rgba(255,255,255,0.08)" stroke-width="1" fill="none"/>
  <circle cx="200" cy="200" r="100" stroke="rgba(255,255,255,0.06)" stroke-width="1" fill="none"/>
  
  <g opacity="0.3">
    <path d="M200 20 L200 60" stroke="rgba(59,130,246,0.5)" stroke-width="2" stroke-linecap="round"/>
    <path d="M200 340 L200 380" stroke="rgba(59,130,246,0.5)" stroke-width="2" stroke-linecap="round"/>
    <path d="M20 200 L60 200" stroke="rgba(59,130,246,0.5)" stroke-width="2" stroke-linecap="round"/>
    <path d="M340 200 L380 200" stroke="rgba(59,130,246,0.5)" stroke-width="2" stroke-linecap="round"/>
  </g>
  
  <g opacity="0.2">
    <path d="M141.4 141.4 L165.7 165.7" stroke="rgba(59,130,246,0.4)" stroke-width="1.5" stroke-linecap="round"/>
    <path d="M234.3 234.3 L258.6 258.6" stroke="rgba(59,130,246,0.4)" stroke-width="1.5" stroke-linecap="round"/>
    <path d="M258.6 141.4 L234.3 165.7" stroke="rgba(59,130,246,0.4)" stroke-width="1.5" stroke-linecap="round"/>
    <path d="M165.7 234.3 L141.4 258.6" stroke="rgba(59,130,246,0.4)" stroke-width="1.5" stroke-linecap="round"/>
  </g>
  
  <circle cx="200" cy="200" r="8" fill="rgba(59,130,246,0.6)"/>
  
  <g opacity="0.4">
    <rect x="190" y="120" width="20" height="4" rx="2" fill="rgba(59,130,246,0.5)"/>
    <rect x="190" y="276" width="20" height="4" rx="2" fill="rgba(59,130,246,0.5)"/>
    <rect x="120" y="190" width="4" height="20" rx="2" fill="rgba(59,130,246,0.5)"/>
    <rect x="276" y="190" width="4" height="20" rx="2" fill="rgba(59,130,246,0.5)"/>
  </g>
  
  <path d="M180 200 L220 200 M200 180 L200 220" stroke="rgba(59,130,246,0.3)" stroke-width="1" stroke-linecap="round"/>
</svg>
