<svg width="324" height="357" viewBox="0 0 324 357" fill="none" xmlns="http://www.w3.org/2000/svg">
<path d="M125.605 146.605L74 201.142V218.148L125.605 259.198V146.605Z" fill="black"/>
<path d="M229.401 24.0432L74 187.068V6.45062L125.605 58.642V124.907L190.111 56.8827L188.352 51.0185H130.883L79.8642 0H205.944L229.401 24.0432Z" fill="black"/>
<path d="M264 259.198H203.599L130.883 141.327L154.926 115.525H176.037L187.179 103.796V81.5124L241.13 26.3889V124.321L203.599 161.265L264 259.198Z" fill="black"/>
<path d="M126 132.698V124.698L157.5 91.1975L161.5 95.1975L126 132.698Z" fill="#64F9FA"/>
<path d="M4.10156 299.34H26.1328C28.0273 299.34 29.7461 299.809 31.2891 300.746C32.8516 301.664 34.0918 302.895 35.0098 304.438C35.9473 305.98 36.416 307.699 36.416 309.594V313.754C36.416 315.648 35.957 317.357 35.0391 318.881C34.1406 320.404 32.9102 321.615 31.3477 322.514C29.7852 323.412 28.0371 323.861 26.1035 323.861L38.5254 341H30.9961L18.5742 323.861H13.7988V317.709H26.1328C27.2852 317.709 28.2617 317.318 29.0625 316.537C29.8633 315.736 30.2637 314.779 30.2637 313.666V309.594C30.2637 308.461 29.8633 307.494 29.0625 306.693C28.2617 305.893 27.2852 305.492 26.1328 305.492H10.2832V341H4.10156V299.34ZM44.4141 311.059C44.4141 308.891 44.9707 306.928 46.084 305.17C47.2168 303.393 48.7207 301.977 50.5957 300.922C52.4707 299.867 54.5508 299.34 56.8359 299.34H66.5918C68.877 299.34 70.957 299.867 72.832 300.922C74.7266 301.977 76.2305 303.393 77.3438 305.17C78.457 306.928 79.0137 308.891 79.0137 311.059V329.281C79.0137 331.43 78.457 333.393 77.3438 335.17C76.2305 336.947 74.7266 338.363 72.832 339.418C70.957 340.473 68.877 341 66.5918 341H56.8359C54.5508 341 52.4707 340.473 50.5957 339.418C48.7207 338.363 47.2168 336.947 46.084 335.17C44.9707 333.393 44.4141 331.43 44.4141 329.281V311.059ZM50.5957 329.311C50.5957 330.834 51.2012 332.143 52.4121 333.236C53.6426 334.311 55.1172 334.848 56.8359 334.848H66.5918C68.3301 334.848 69.8047 334.311 71.0156 333.236C72.2266 332.143 72.832 330.834 72.832 329.311V311.029C72.832 309.506 72.2266 308.207 71.0156 307.133C69.8047 306.039 68.3301 305.492 66.5918 305.492H56.8359C55.1172 305.492 53.6426 306.039 52.4121 307.133C51.2012 308.207 50.5957 309.506 50.5957 311.029V329.311ZM87.2461 299.34H109.189C111.123 299.34 112.871 299.799 114.434 300.717C115.996 301.635 117.236 302.865 118.154 304.408C119.092 305.951 119.561 307.68 119.561 309.594V312.318C119.561 315.033 118.779 317.094 117.217 318.5C118.604 319.398 119.609 320.473 120.234 321.723C120.859 322.953 121.172 324.496 121.172 326.352V330.951C121.172 332.787 120.703 334.467 119.766 335.99C118.848 337.514 117.607 338.734 116.045 339.652C114.482 340.551 112.754 341 110.859 341H87.2461V299.34ZM110.918 334.818C112.051 334.818 113.018 334.438 113.818 333.676C114.619 332.895 115.02 331.957 115.02 330.863V326.264C115.02 325.17 114.619 324.232 113.818 323.451C113.018 322.67 112.041 322.279 110.889 322.279H96.9434V316.127H109.189C110.342 316.127 111.328 315.756 112.148 315.014C112.988 314.252 113.408 313.334 113.408 312.26V309.594C113.408 308.461 112.988 307.494 112.148 306.693C111.328 305.893 110.342 305.492 109.189 305.492H93.4277V334.818H110.918ZM128.496 311.059C128.496 308.891 129.053 306.928 130.166 305.17C131.299 303.393 132.803 301.977 134.678 300.922C136.553 299.867 138.633 299.34 140.918 299.34H150.674C152.959 299.34 155.039 299.867 156.914 300.922C158.809 301.977 160.312 303.393 161.426 305.17C162.539 306.928 163.096 308.891 163.096 311.059V329.281C163.096 331.43 162.539 333.393 161.426 335.17C160.312 336.947 158.809 338.363 156.914 339.418C155.039 340.473 152.959 341 150.674 341H140.918C138.633 341 136.553 340.473 134.678 339.418C132.803 338.363 131.299 336.947 130.166 335.17C129.053 333.393 128.496 331.43 128.496 329.281V311.059ZM134.678 329.311C134.678 330.834 135.283 332.143 136.494 333.236C137.725 334.311 139.199 334.848 140.918 334.848H150.674C152.412 334.848 153.887 334.311 155.098 333.236C156.309 332.143 156.914 330.834 156.914 329.311V311.029C156.914 309.506 156.309 308.207 155.098 307.133C153.887 306.039 152.412 305.492 150.674 305.492H140.918C139.199 305.492 137.725 306.039 136.494 307.133C135.283 308.207 134.678 309.506 134.678 311.029V329.311ZM171.328 299.34H193.359C195.254 299.34 196.973 299.809 198.516 300.746C200.078 301.664 201.318 302.895 202.236 304.438C203.174 305.98 203.643 307.699 203.643 309.594V313.754C203.643 315.648 203.184 317.357 202.266 318.881C201.367 320.404 200.137 321.615 198.574 322.514C197.012 323.412 195.264 323.861 193.33 323.861L205.752 341H198.223L185.801 323.861H181.025V317.709H193.359C194.512 317.709 195.488 317.318 196.289 316.537C197.09 315.736 197.49 314.779 197.49 313.666V309.594C197.49 308.461 197.09 307.494 196.289 306.693C195.488 305.893 194.512 305.492 193.359 305.492H177.51V341H171.328V299.34ZM211.641 311.059C211.641 308.891 212.197 306.928 213.311 305.17C214.443 303.393 215.947 301.977 217.822 300.922C219.697 299.867 221.777 299.34 224.062 299.34H233.818C236.104 299.34 238.184 299.867 240.059 300.922C241.953 301.977 243.457 303.393 244.57 305.17C245.684 306.928 246.24 308.891 246.24 311.059V329.281C246.24 331.43 245.684 333.393 244.57 335.17C243.457 336.947 241.953 338.363 240.059 339.418C238.184 340.473 236.104 341 233.818 341H224.062C221.777 341 219.697 340.473 217.822 339.418C215.947 338.363 214.443 336.947 213.311 335.17C212.197 333.393 211.641 331.43 211.641 329.281V311.059ZM217.822 329.311C217.822 330.834 218.428 332.143 219.639 333.236C220.869 334.311 222.344 334.848 224.062 334.848H233.818C235.557 334.848 237.031 334.311 238.242 333.236C239.453 332.143 240.059 330.834 240.059 329.311V311.029C240.059 309.506 239.453 308.207 238.242 307.133C237.031 306.039 235.557 305.492 233.818 305.492H224.062C222.344 305.492 220.869 306.039 219.639 307.133C218.428 308.207 217.822 309.506 217.822 311.029V329.311ZM254.473 299.34H282.363V305.492H260.654V341H254.473V299.34ZM264.17 316.244H282.363V322.396H264.17V316.244ZM289.98 299.34H296.133V329.34C296.133 330.863 296.67 332.162 297.744 333.236C298.818 334.311 300.107 334.848 301.611 334.848H322.266V341H301.611C299.482 341 297.529 340.482 295.752 339.447C293.994 338.393 292.588 336.986 291.533 335.229C290.498 333.451 289.98 331.488 289.98 329.34V299.34Z" fill="black"/>
</svg>
